# xmcd
#
# Track frame offsets:
#       150
#       25238
#       44660
#       66872
#       93133
#       115725
#       134026
#       152555
#       166708
#       188924
#
# Disc length: 2820 seconds
#
# Revision: 1
# Processed by: cddbd v1.4PL0 Copyright (c) Steve Scherf et al.
# Submitted via: MusiCat 1.0
#
DISCID=800b020a
DTITLE=Barbara Morrison - Barbara Morrison
DYEAR=1900
DGENRE=
TTITLE0=I can´t make you love me
TTITLE1=What a difference a day made
TTITLE2=All in love is fair
TTITLE3=All my tomorrows
TTITLE4=At last
TTITLE5=Never let me go
TTITLE6=River´s invitation
TTITLE7=This is always
TTITLE8=Easy living
TTITLE9=I´m in the mood for love
EXTD=0\n\n\n
EXTT0=
EXTT1=
EXTT2=
EXTT3=
EXTT4=
EXTT5=
EXTT6=
EXTT7=
EXTT8=
EXTT9=
PLAYORDER=
